HIERARCHY
ROOT root
{
	OFFSET	0	13.1	24.9
	CHANNELS 6  Xposition Yposition Zposition Xrotation Yrotation Zrotation
	JOINT spine_1
	{
		OFFSET	0	9.99999	0
		CHANNELS 3  Xrotation Yrotation Zrotation
		JOINT spine_2
		{
			OFFSET	0	112	-10
			CHANNELS 3  Xrotation Yrotation Zrotation
			JOINT spine_3
			{
				OFFSET	0	206.5	19.3
				CHANNELS 3  Xrotation Yrotation Zrotation
				JOINT spine_4
				{
					OFFSET	0	110.4	14.6
					CHANNELS 3  Xrotation Yrotation Zrotation
					JOINT neck_1
					{
						OFFSET	0	71.8	-50.3
						CHANNELS 3  Xrotation Yrotation Zrotation
						JOINT neck_2
						{
							OFFSET	0	86.2	-25.8
							CHANNELS 3  Xrotation Yrotation Zrotation
							JOINT head_ee
							{
								OFFSET	0	179.8	-8.7
								CHANNELS 3  Xrotation Yrotation Zrotation
								End Site
								{
									OFFSET	1	0	0
								}
							}
						}
					}
					JOINT left_clavicle
					{
						OFFSET	-43.2	22.4	-70.8
						CHANNELS 3  Xrotation Yrotation Zrotation
						JOINT left_shoulder
						{
							OFFSET	-93.9	-5.79999	48.7
							CHANNELS 3  Xrotation Yrotation Zrotation
							JOINT left_elbow
							{
								OFFSET	-291.4	-30.8	15.2
								CHANNELS 3  Xrotation Yrotation Zrotation
								JOINT left_lowarm_twist
								{
									OFFSET	-110.7	-3.89999	13.6
									CHANNELS 3  Xrotation Yrotation Zrotation
									JOINT left_hand
									{
										OFFSET	-110.7	-3.89999	13.6
										CHANNELS 3  Xrotation Yrotation Zrotation
										JOINT left_ee
										{
											OFFSET	-80.8	-5.10001	12.1
											CHANNELS 3  Xrotation Yrotation Zrotation
											End Site
											{
												OFFSET	1	0	0
											}
										}
									}
								}
							}
						}
					}
					JOINT right_clavicle
					{
						OFFSET	43.2	22.4	-70.8
						CHANNELS 3  Xrotation Yrotation Zrotation
						JOINT right_shoulder
						{
							OFFSET	93.9	-5.79999	48.7
							CHANNELS 3  Xrotation Yrotation Zrotation
							JOINT right_elbow
							{
								OFFSET	291.4	-30.8	15.2
								CHANNELS 3  Xrotation Yrotation Zrotation
								JOINT right_lowarm_twist
								{
									OFFSET	110.7	-3.89999	13.6
									CHANNELS 3  Xrotation Yrotation Zrotation
									JOINT right_hand
									{
										OFFSET	110.7	-3.89999	13.6
										CHANNELS 3  Xrotation Yrotation Zrotation
										JOINT right_ee
										{
											OFFSET	80.8	-5.10001	12.1
											CHANNELS 3  Xrotation Yrotation Zrotation
											End Site
											{
												OFFSET	1	0	0
											}
										}
									}
								}
							}
						}
					}
				}
			}
		}
	}
	JOINT left_hip
	{
		OFFSET	-82.8	-127.5	0.300001
		CHANNELS 3  Xrotation Yrotation Zrotation
		JOINT left_knee
		{
			OFFSET	-28.2	-396.7	2.2
			CHANNELS 3  Xrotation Yrotation Zrotation
			JOINT left_ankle
			{
				OFFSET	-11.7	-411.3	35.4
				CHANNELS 3  Xrotation Yrotation Zrotation
				JOINT left_toes
				{
					OFFSET	0	-60	-88.6
					CHANNELS 3  Xrotation Yrotation Zrotation
					JOINT left_foot_ee
					{
						OFFSET	-22.5	-16.5	-42.2
						CHANNELS 3  Xrotation Yrotation Zrotation
						End Site
						{
							OFFSET	1	0	0
						}
					}
				}
			}
		}
	}
	JOINT right_hip
	{
		OFFSET	82.8	-127.5	0.300001
		CHANNELS 3  Xrotation Yrotation Zrotation
		JOINT right_knee
		{
			OFFSET	28.2	-396.7	2.2
			CHANNELS 3  Xrotation Yrotation Zrotation
			JOINT right_ankle
			{
				OFFSET	11.7	-411.3	35.4
				CHANNELS 3  Xrotation Yrotation Zrotation
				JOINT right_toes
				{
					OFFSET	0	-60	-88.6
					CHANNELS 3  Xrotation Yrotation Zrotation
					JOINT right_foot_ee
					{
						OFFSET	22.5	-16.5	-42.2
						CHANNELS 3  Xrotation Yrotation Zrotation
						End Site
						{
							OFFSET	1	0	0
						}
					}
				}
			}
		}
	}
}
MOTION
Frames: 5
Frame Time: 0.02
2070.75 712.678 -1480.21 9.53994 59.815 -13.026 -0.975548 0.279588 2.12955 -0.973037 0.143545 2.14301 -0.965735 -0.345973 2.11978 -0.972006 -0.0069323 2.1478 -12.6304 21.1291 2.70153 -13.7191 38.5332 9.33718 -0.0 0.0 -0.0 3.16868 22.8405 7.05453 -23.6844 3.84626 65.0431 1.0396 -27.2473 0.251966 -61.4127 -5.45895 5.14298 -0.738314 15.6626 1.8377 -0.0 0.0 -0.0 12.6325 25.8013 -24.853 -4.86427 28.0428 -63.3752 1.70629 40.2026 -0.624499 83.6545 4.26615 8.80221 -1.95154 -26.0616 0.605624 0.0 0.0 0.0 -2.69894 24.2759 -8.0665 -27.5233 0.130934 4.18129 32.4135 -2.29031 -4.18261 -7.38674 0.0 0.0 -0.0 0.0 -0.0 1.26169 12.3435 0.451311 -2.52762 -0.0957886 -0.376049 24.1774 18.6043 3.5774 -5.43351 0.0 0.0 0.0 0.0 0.0 
2062.35 714.855 -1477.6 9.41916 60.4136 -12.8336 -0.940473 0.277445 2.086 -0.938064 0.144175 2.09942 -0.930944 -0.334208 2.07766 -0.936968 -0.00196108 2.10436 -12.749 21.0974 2.76535 -13.8537 38.4516 9.43282 -0.0 0.0 -0.0 3.0396 23.101 6.87939 -23.9912 4.9175 66.0859 0.959107 -25.4126 0.216259 -61.2432 -5.43776 5.1382 -0.775551 17.0717 2.2075 -0.0 0.0 -0.0 12.3827 25.4326 -24.3203 -5.13383 28.5594 -62.857 1.82637 42.1325 -0.703553 83.7644 4.27919 8.80757 -1.47344 -25.0726 -1.60593 0.0 0.0 0.0 -0.929469 23.0944 -8.3866 -26.6897 0.156559 4.05593 32.1294 -1.77271 -4.14833 -6.43483 0.0 0.0 -0.0 0.0 -0.0 0.911723 11.6255 1.29251 -2.87495 -0.107649 -0.428033 24.7554 20.9587 3.72531 -5.31987 0.0 0.0 0.0 0.0 0.0 
2055.65 713.103 -1475.53 9.55899 61.7829 -12.8725 -0.884959 0.0467449 2.09181 -0.882529 -0.0864273 2.09054 -0.884183 -0.555324 2.01732 -0.889789 -0.229829 2.07967 -13.248 21.3417 4.27001 -14.3822 38.083 11.1028 -0.0 0.0 -0.0 2.89173 22.8228 6.66657 -23.1171 4.92438 66.428 0.817832 -22.0542 0.159375 -60.7201 -5.37244 5.12303 -0.36464 17.9934 5.0872 -0.0 0.0 -0.0 11.9324 23.0403 -23.5307 -4.75554 28.3627 -62.8023 2.043 45.3376 -0.853374 85.388 4.47304 8.88386 0.104689 -22.8535 -9.75469 0.0 0.0 0.0 -1.06595 30.7414 -9.10583 -16.3282 0.321287 2.47666 27.1321 -0.612536 -3.60096 -8.31018 0.0 0.0 -0.0 0.0 -0.0 1.02849 11.0415 1.3786 -3.01801 -0.112443 -0.449466 24.8959 19.7713 3.70409 -7.21199 0.0 0.0 0.0 0.0 0.0 
2052.79 716.227 -1474.58 8.16282 61.1058 -11.1506 -0.730895 0.0518212 2.04725 -0.728566 -0.0785278 2.0464 -0.730011 -0.532344 1.97753 -0.735405 -0.213418 2.03676 -13.7279 20.6243 3.88333 -14.8786 37.0211 10.6567 -0.0 0.0 -0.0 2.66693 22.5843 6.34458 -22.7795 5.03094 66.8159 0.753335 -20.4645 0.135986 -59.4303 -5.21198 5.08309 0.152463 17.8753 8.19277 -0.0 0.0 -0.0 12.0381 23.1629 -23.7614 -4.77154 28.1895 -62.2701 2.1926 47.3585 -0.961631 85.3829 4.47243 8.88363 0.731161 -23.0924 -13.5396 0.0 0.0 0.0 -0.58077 30.9474 -9.509 -14.1293 0.319369 2.13932 24.1195 0.0031723 -3.25036 -9.60661 0.0 0.0 -0.0 0.0 -0.0 2.01138 10.0551 0.802584 -3.19919 -0.118438 -0.476626 25.3015 19.734 3.75394 -8.39716 0.0 0.0 0.0 0.0 0.0 
2044.52 716.019 -1468.22 8.11366 61.4294 -10.8269 -0.662812 0.018203 1.77677 -0.661061 -0.0948764 1.77433 -0.663034 -0.48565 1.70923 -0.66705 -0.209658 1.76446 -12.8575 20.4335 3.90775 -13.8172 36.4973 10.2562 -0.0 0.0 -0.0 2.76557 23.1178 6.49879 -22.3757 4.96936 67.5035 0.675445 -18.5001 0.110005 -58.6279 -5.11262 5.05642 0.556318 18.1669 10.7809 -0.0 0.0 -0.0 11.7763 22.4049 -23.2306 -5.18056 27.4228 -61.8997 2.29669 48.6791 -1.03902 85.149 4.44437 8.87298 1.26869 -23.3309 -16.8422 0.0 0.0 0.0 -1.48517 33.4682 -8.79308 -11.815 0.303372 1.78461 22.7242 0.436061 -3.08198 -9.55264 0.0 0.0 -0.0 0.0 -0.0 1.87688 8.87531 1.1426 -3.92246 -0.141509 -0.585227 26.4187 18.9435 3.86685 -8.96249 0.0 0.0 0.0 0.0 0.0 
